<?xml version="1.0" encoding="iso-8859-1"?>
<!-- Generator: Adobe Illustrator 16.0.0, SVG Export Plug-In . SVG Version: 6.00 Build 0)  -->
<!DOCTYPE svg PUBLIC "-//W3C//DTD SVG 1.1//EN" "http://www.w3.org/Graphics/SVG/1.1/DTD/svg11.dtd">
<svg version="1.1" id="Capa_1" xmlns="http://www.w3.org/2000/svg" xmlns:xlink="http://www.w3.org/1999/xlink" x="0px" y="0px"
	 width="578.695px" height="578.695px" viewBox="0 0 578.695 578.695" style="enable-background:new 0 0 578.695 578.695;"
	 xml:space="preserve">
<g>
	<g id="Layer_1_32_">
		<g>
			<path fill="#80cbc4" d="M59.925,165.595l456.45-117.3l-3.825-17.85C507.45,8.771,484.5-3.979,462.825,1.12l-377.4,96.9
				C63.75,103.12,51,126.07,56.1,147.745L59.925,165.595z"/>
			<path fill="#80cbc4" d="M545.7,322.42c21.675-5.1,34.425-28.05,29.324-49.725l-36.975-145.35l-318.75,81.6h215.475
				c43.351,0,79.051,35.7,79.051,79.05v43.351L545.7,322.42z"/>
			<path fill="#80cbc4" d="M474.3,287.995c0-22.95-17.85-40.8-40.8-40.8H43.35c-22.95,0-40.8,17.85-40.8,40.8v249.9c0,22.95,17.85,40.8,40.8,40.8
				H433.5c22.95,0,40.8-17.85,40.8-40.8V287.995z M47.175,317.32c0-10.2,8.925-19.125,19.125-19.125h216.75
				c10.2,0,19.125,8.925,19.125,19.125s-8.925,19.125-19.125,19.125H66.3C56.1,336.445,47.175,327.521,47.175,317.32z
				 M293.25,541.721c-35.7,0-65.025-29.325-65.025-65.025s29.325-63.75,65.025-63.75s65.024,29.325,65.024,65.025
				C358.274,513.67,328.95,541.721,293.25,541.721z M433.5,477.971c0,35.699-29.325,65.024-65.025,65.024
				c-3.825,0-8.925,0-12.75-1.274c16.575-16.575,25.5-38.25,25.5-63.75s-10.2-47.176-25.5-63.75c3.825-1.275,7.65-1.275,12.75-1.275
				C405.45,412.945,433.5,442.271,433.5,477.971z"/>
		</g>
	</g>
</g>
</svg>
