<svg xmlns="http://www.w3.org/2000/svg" width="578.695" height="578.695" viewBox="0 0 578.695 578.695"><g fill="#80cbc4"><path d="M59.925 165.595l456.45-117.3-3.825-17.85C507.45 8.77 484.5-3.98 462.825 1.12l-377.4 96.9C63.75 103.12 51 126.07 56.1 147.745l3.825 17.85zM545.7 322.42c21.675-5.1 34.425-28.05 29.324-49.725l-36.975-145.35-318.75 81.6h215.474c43.35 0 79.05 35.7 79.05 79.05v43.35l31.876-8.925z"/><path d="M474.3 287.995c0-22.95-17.85-40.8-40.8-40.8H43.35c-22.95 0-40.8 17.85-40.8 40.8v249.9c0 22.95 17.85 40.8 40.8 40.8H433.5c22.95 0 40.8-17.85 40.8-40.8v-249.9zM47.175 317.32c0-10.2 8.925-19.125 19.125-19.125h216.75c10.2 0 19.125 8.925 19.125 19.125s-8.925 19.125-19.125 19.125H66.3c-10.2 0-19.125-8.924-19.125-19.125zm246.075 224.4c-35.7 0-65.025-29.324-65.025-65.024s29.325-63.75 65.025-63.75 65.024 29.325 65.024 65.025-29.324 63.75-65.024 63.75zm140.25-63.75c0 35.7-29.325 65.025-65.025 65.025-3.825 0-8.925 0-12.75-1.274 16.575-16.574 25.5-38.25 25.5-63.75s-10.2-47.175-25.5-63.75c3.825-1.274 7.65-1.274 12.75-1.274 36.975 0 65.025 29.325 65.025 65.025z"/></g></svg>